<?xml version="1.0" encoding="utf-8"?>
<!-- Generator: Adobe Illustrator 25.2.3, SVG Export Plug-In . SVG Version: 6.00 Build 0)  -->
<svg
	version="1.1"
	id="Layer_1"
	xmlns="http://www.w3.org/2000/svg"
	class="text-inherit"
	xmlns:xlink="http://www.w3.org/1999/xlink"
	x="0px"
	y="0px"
	viewBox="0 0 297 146.1"
	style="enable-background: new 0 0 297 146.1"
	xml:space="preserve"
>
	<g>
		<path d="M14.3,34.5h7.6l24.6,66.2l24.7-66.2h7.6l-29.2,77.7h-6L14.3,34.5z" />
		<path d="M92.1,69.3h32.6V77H92.1v27.6h32.6v7.5H84.4V34.5h40.3v7.6H92.1V69.3z" />
		<path d="M174.3,112.1h-35V34.5h7.7v70.1h27.3V112.1z" />
		<g>
			<path
				d="M258.7,111.6c-12.6,13-30.8,19-48.6,16c1.4,2.2,3.1,4.3,5.1,6.1c15.6,1,31-4.1,43-14.2
			C258.8,116.9,258.9,114.2,258.7,111.6z"
			/>
			<path
				d="M229.7,19.2c-1.2-2.3-2.8-4.4-4.7-6.2c-15.9-1.6-31.8,3.3-44.2,13.3c-0.5,2.6-0.7,5.2-0.4,7.8
			C193.3,21.3,211.8,15.7,229.7,19.2z"
			/>
			<path
				d="M273.4,82.8c2.2-1.2,4.3-2.8,6.1-4.7c1.3-16-3.9-32-14.3-44.2c-2.6-0.5-5.2-0.5-7.7-0.2C270.6,46.4,276.5,64.9,273.4,82.8
			z"
			/>
			<g>
				<path
					d="M190.6,62.4c-2.8-1.5-5.8-2.3-8.7-2.7c-0.9,2.6-1.6,5.3-2,8.1c-2.1,15,4.7,29.2,16.3,37.4c2.2-2,4.1-4.5,5.6-7.3
				C208.5,85,203.5,69.2,190.6,62.4z"
				/>
				<path
					d="M209.2,101.8c-1.4,2.8-2.3,5.7-2.7,8.6c2.2,0.7,4.5,1.3,6.9,1.6c15.2,2.1,29.5-4.9,37.6-16.7c-1.8-1.8-3.9-3.4-6.4-4.7
				C231.8,83.9,215.9,88.9,209.2,101.8z"
				/>
				<path
					d="M229.9,43.9c1.2-2.4,2.1-4.9,2.5-7.4c-2.7-1-5.5-1.7-8.5-2.1c-14.6-2-28.4,4.3-36.6,15.3c2,2.1,4.4,4,7.1,5.4
				C207.3,61.8,223.2,56.8,229.9,43.9z"
				/>
				<path
					d="M241.8,41.5c-1.7,1.8-3.3,3.9-4.5,6.2c-6.7,12.9-1.7,28.8,11.2,35.5c2.3,1.2,4.8,2,7.3,2.5c0.8-2.3,1.4-4.7,1.7-7.2
				C259.5,63.7,253,49.7,241.8,41.5z"
				/>
			</g>
		</g>
	</g>
</svg>
